<svg width="541" height="188" viewBox="0 0 541 188" fill="none" xmlns="http://www.w3.org/2000/svg">
<path d="M57.4 165.3C73.2 165.3 84.1 160.1 84.1 150.5C84.1 143.2 78.1 138 67.8 136.2L40.8 131.5C22.1 128.4 4.7 119 4.7 97C4.7 73.4 25.2 58.9 55.6 58.9C79.2 58.9 106.5 66.9 109.1 98.9H84.1C82.8 85.7 71.1 80.5 55.6 80.5C40 80.5 31.5 86.2 31.5 94.8C31.5 101.3 36.2 107.5 50.4 109.9L73.2 113.5C91.6 116.9 109.8 124.9 109.8 148.5C109.8 174.2 87.2 187.4 56.6 187.4C27.8 187.4 3.1 176 0 143.8L24.9 144.1C27.8 159.1 38.9 165.3 57.4 165.3Z" fill="white"/>
<path d="M217.6 182.4C207 186.3 198.1 187.3 189.8 187.3C158.7 187.3 142.1 168.6 142.1 137.2V84.9H113.3V62.3H142.1V17.4H169.1V62.3H214.3V84.9H169.1V137.3C169.1 154.9 177.9 162.5 193 162.5C200.3 162.5 207.5 160.4 213.8 157.8L217.6 182.4Z" fill="white"/>
<path d="M347.6 62.3V184.3H320.9V172.4C310.3 182 297 187.5 281.2 187.5C249.5 187.5 228.3 164.9 228.3 129.9V62.3H255V128.2C255 150.5 267.2 163 286.7 163C298.6 163 311.1 156.3 321 143.8V62.3H347.6Z" fill="white"/>
<path d="M485.8 0V184.2H459V174.3C448.6 182.6 435.4 187.3 419.8 187.3C385.5 187.3 358 158.8 358 122.9C358 87.6 385.5 59.1 419.8 59.1C435.4 59.1 448.6 63.8 459 71.8V0H485.8ZM459 145.1V101.2C449.9 88.2 437.2 83.6 423.7 83.6C401.4 83.6 385 101.5 385 123C385 144.8 401.3 163 423.7 163C437.2 163 449.9 158.3 459 145.1Z" fill="white"/>
<path d="M526.4 62.3V184H499.8V62.3H526.4Z" fill="white"/>
<path d="M540.3 0L499.8 13.9L526.4 40.6L540.3 0Z" fill="white"/>
</svg>
